<?xml version="1.0" encoding="UTF-8"?>
<!DOCTYPE svg PUBLIC "-//W3C//DTD SVG 1.1//EN" "http://www.w3.org/Graphics/SVG/1.1/DTD/svg11.dtd">
<svg xmlns="http://www.w3.org/2000/svg" version="1.1" width="180px" height="80px" style="shape-rendering:geometricPrecision; text-rendering:geometricPrecision; image-rendering:optimizeQuality; fill-rule:evenodd; clip-rule:evenodd" xmlns:xlink="http://www.w3.org/1999/xlink">
<g><path style="opacity:0.738" fill="#fefefe" d="M 161.5,7.5 C 165.534,7.67205 169.534,8.17205 173.5,9C 177.879,10.1338 178.712,12.6338 176,16.5C 166.535,9.03235 158.201,10.0324 151,19.5C 147.273,28.6374 148.773,36.804 155.5,44C 162.465,47.5782 169.131,47.0782 175.5,42.5C 176.833,44.1667 176.833,45.8333 175.5,47.5C 152.545,54.6999 141.712,46.3665 143,22.5C 146.219,13.8137 152.386,8.81368 161.5,7.5 Z"/></g>
<g><path style="opacity:0.789" fill="#fefefe" d="M 10.5,8.5 C 12.8333,8.5 15.1667,8.5 17.5,8.5C 17.5,20.8333 17.5,33.1667 17.5,45.5C 22.8699,45.6079 28.2032,45.2745 33.5,44.5C 33.5,46.1667 33.5,47.8333 33.5,49.5C 25.8333,49.5 18.1667,49.5 10.5,49.5C 10.5,35.8333 10.5,22.1667 10.5,8.5 Z"/></g>
<g><path style="opacity:0.824" fill="#f9f9f9" d="M 36.5,8.5 C 38.5,8.5 40.5,8.5 42.5,8.5C 42.5,22.1667 42.5,35.8333 42.5,49.5C 40.2075,49.7564 38.0408,49.4231 36,48.5C 35.1865,35.0915 35.3532,21.7582 36.5,8.5 Z"/></g>
<g><path style="opacity:0.782" fill="#fefefe" d="M 45.5,8.5 C 55.8333,8.5 66.1667,8.5 76.5,8.5C 76.5,10.1667 76.5,11.8333 76.5,13.5C 72.5191,12.9791 68.5191,12.6458 64.5,12.5C 64.5,24.8333 64.5,37.1667 64.5,49.5C 62.5,49.5 60.5,49.5 58.5,49.5C 58.5,37.1667 58.5,24.8333 58.5,12.5C 54.1311,12.4672 49.7978,12.8005 45.5,13.5C 45.5,11.8333 45.5,10.1667 45.5,8.5 Z"/></g>
<g><path style="opacity:0.756" fill="#fefefe" d="M 80.5,8.5 C 82.8333,8.5 85.1667,8.5 87.5,8.5C 87.5,14.1667 87.5,19.8333 87.5,25.5C 95.1667,25.5 102.833,25.5 110.5,25.5C 110.5,19.8333 110.5,14.1667 110.5,8.5C 112.5,8.5 114.5,8.5 116.5,8.5C 116.5,22.1667 116.5,35.8333 116.5,49.5C 114.5,49.5 112.5,49.5 110.5,49.5C 110.5,42.8333 110.5,36.1667 110.5,29.5C 102.833,29.5 95.1667,29.5 87.5,29.5C 87.5,36.1667 87.5,42.8333 87.5,49.5C 85.1667,49.5 82.8333,49.5 80.5,49.5C 80.5,35.8333 80.5,22.1667 80.5,8.5 Z"/></g>
<g><path style="opacity:0.76" fill="#fefefe" d="M 119.5,8.5 C 126.508,8.33371 133.508,8.50038 140.5,9C 140.833,10 141.167,11 141.5,12C 140.975,12.6924 140.308,13.1924 139.5,13.5C 134.9,12.5565 130.233,12.2232 125.5,12.5C 125.5,16.8333 125.5,21.1667 125.5,25.5C 130.167,25.5 134.833,25.5 139.5,25.5C 139.5,26.8333 139.5,28.1667 139.5,29.5C 134.833,29.5 130.167,29.5 125.5,29.5C 125.5,34.8333 125.5,40.1667 125.5,45.5C 130.88,45.6757 136.213,45.3424 141.5,44.5C 141.5,46.1667 141.5,47.8333 141.5,49.5C 134.167,49.5 126.833,49.5 119.5,49.5C 119.5,35.8333 119.5,22.1667 119.5,8.5 Z"/></g>
<g><path style="opacity:0.928" fill="#009ee2" d="M -0.5,73.5 C -0.5,72.8333 -0.5,72.1667 -0.5,71.5C 2.9703,66.5081 6.30363,61.3414 9.5,56C 17.1883,55.1685 24.855,55.3352 32.5,56.5C 29.3653,62.1315 26.032,67.6315 22.5,73C 14.8406,73.4997 7.1739,73.6664 -0.5,73.5 Z"/></g>
<g><path style="opacity:0.933" fill="#e5007d" d="M 36.5,55.5 C 44.5069,55.3336 52.5069,55.5003 60.5,56C 57.2923,61.5832 53.959,67.0832 50.5,72.5C 42.5208,73.6649 34.5208,73.8316 26.5,73C 30.4893,67.5189 33.8227,61.6856 36.5,55.5 Z"/></g>
<g><path style="opacity:0.926" fill="#feec00" d="M 64.5,55.5 C 72.5069,55.3336 80.5069,55.5003 88.5,56C 84.8333,61.6667 81.1667,67.3333 77.5,73C 69.8333,73.6667 62.1667,73.6667 54.5,73C 57.9835,67.1933 61.3168,61.36 64.5,55.5 Z"/></g>
<g><path style="opacity:0.926" fill="#fefefe" d="M 92.5,55.5 C 100.196,55.1692 107.862,55.5025 115.5,56.5C 112.041,61.9168 108.708,67.4168 105.5,73C 97.8117,73.8315 90.145,73.6648 82.5,72.5C 85.8608,66.8161 89.1941,61.1494 92.5,55.5 Z"/></g>
<g><path style="opacity:0.602" fill="#fefefe" d="M 152.5,55.5 C 154.197,57.3052 155.03,59.6385 155,62.5C 160.01,60.3388 162.51,62.0055 162.5,67.5C 162.805,71.2009 161.138,73.5342 157.5,74.5C 155.929,73.6906 154.262,73.3573 152.5,73.5C 152.5,67.5 152.5,61.5 152.5,55.5 Z M 156.5,63.5 C 158.89,63.6848 159.89,65.0182 159.5,67.5C 158.17,73.6962 156.503,73.8629 154.5,68C 155.044,66.415 155.711,64.915 156.5,63.5 Z"/></g>
<g><path style="opacity:0.544" fill="#fefefe" d="M 122.5,56.5 C 126.308,56.1632 129.974,56.6632 133.5,58C 132.568,60.6512 131.235,60.9845 129.5,59C 125.834,57.729 123.334,58.8956 122,62.5C 120.722,69.7188 123.555,72.7188 130.5,71.5C 130.5,69.5 130.5,67.5 130.5,65.5C 131.5,65.5 132.5,65.5 133.5,65.5C 133.768,68.1194 133.435,70.6194 132.5,73C 122.033,76.0281 117.533,72.1947 119,61.5C 119.997,59.6769 121.164,58.0103 122.5,56.5 Z"/></g>
<g><path style="opacity:0.692" fill="#fefefe" d="M 164.5,56.5 C 166.344,58.2789 167.01,60.6122 166.5,63.5C 169.167,63.5 171.833,63.5 174.5,63.5C 174.5,61.1667 174.5,58.8333 174.5,56.5C 175.5,56.5 176.5,56.5 177.5,56.5C 177.5,62.1667 177.5,67.8333 177.5,73.5C 176.5,73.5 175.5,73.5 174.5,73.5C 174.5,70.8333 174.5,68.1667 174.5,65.5C 171.833,65.5 169.167,65.5 166.5,65.5C 166.813,68.2469 166.48,70.9135 165.5,73.5C 164.505,67.8722 164.171,62.2055 164.5,56.5 Z"/></g>
<g><path style="opacity:0.575" fill="#fefefe" d="M 134.5,61.5 C 139.699,61.7862 144.699,62.1195 149.5,62.5C 150.426,66.0938 150.759,69.7604 150.5,73.5C 149.5,73.5 148.5,73.5 147.5,73.5C 147.665,70.4816 147.498,67.4816 147,64.5C 146.586,64.0426 146.086,63.7093 145.5,63.5C 144.016,66.6169 143.016,69.9502 142.5,73.5C 141.682,70.8929 141.182,68.2263 141,65.5C 140.395,63.5188 139.395,63.1854 138,64.5C 137.502,67.4816 137.335,70.4816 137.5,73.5C 136.5,73.5 135.5,73.5 134.5,73.5C 134.5,69.5 134.5,65.5 134.5,61.5 Z"/></g>
</svg>
